<svg width="1900" height="775" viewBox="0 0 1900 775" fill="none" xmlns="http://www.w3.org/2000/svg">
<path d="M1887.5 137.5V762.5H12.5V137.5H1887.5Z" fill="black" stroke="#444444" stroke-width="25"/>
<path d="M1331.5 12.5V137.5H1006.5V12.5H1331.5Z" fill="black" stroke="#444444" stroke-width="25"/>
<path d="M881.5 12.5V137.5H556.5V12.5H881.5Z" fill="black" stroke="#444444" stroke-width="25"/>
<path d="M431.5 12.5V137.5H106.5V12.5H431.5Z" fill="black" stroke="#444444" stroke-width="25"/>
<path d="M1781.5 12.5V137.5H1456.5V12.5H1781.5Z" fill="black" stroke="#444444" stroke-width="25"/>
<path d="M1143.45 288.871L1108.28 668.3L950.263 710.482L792.685 668.359L757.549 288.871H1143.45Z" fill="#264DE4" stroke="#444444"/>
<path d="M1108.14 319.973L1078.09 644.083L951 678.011V319.973H1108.14Z" fill="#2965F1" stroke="#444444"/>
<path d="M950 461.051V506.702H842.538L838.289 461.051H950Z" fill="#EBEBEB" stroke="#444444"/>
<path d="M950 366.626V412.278H833.874L829.564 366.626H950Z" fill="#EBEBEB" stroke="#444444"/>
<path d="M892.425 531.03L895.833 567.783L895.865 568.132L896.205 568.221L950 582.207V629.717L851.5 603.386L844.795 531.03H892.425Z" fill="#EBEBEB" stroke="#444444"/>
<path d="M906.258 185.5V208.129H872.117V232.758H906.258V255.387H848.578V185.5H906.258Z" fill="white" stroke="#444444"/>
<path d="M976.673 185.5V205.047H942.532V210.156H976.673V256.414H918.993V235.84H953.134V230.73H918.993V185.5H976.673Z" fill="white" stroke="#444444"/>
<path d="M1047.09 185.5V205.047H1012.95V210.156H1047.09V256.414H989.408V235.84H1023.55V230.73H989.408V185.5H1047.09Z" fill="white" stroke="#444444"/>
<path d="M1071.15 366.626L1062.45 460.504L1061.27 473.031V473.032L1049.88 595.853L1049.19 603.386L950.832 629.636V582.138L1004.49 568.191L1004.83 568.103L1004.87 567.754L1010.49 507.249L1010.54 506.703H950.832V461.051H1014.65L1014.69 460.598L1019.1 412.824L1019.15 412.278H950.832V366.626H1071.15Z" fill="white" stroke="#444444"/>
</svg>
