<svg width="1900" height="775" viewBox="0 0 1900 775" fill="none" xmlns="http://www.w3.org/2000/svg">
<path d="M1887.5 137.5V762.5H12.5V137.5H1887.5Z" fill="black" stroke="#444444" stroke-width="25"/>
<path d="M1337.5 12.5V137.5H1012.5V12.5H1337.5Z" fill="black" stroke="#444444" stroke-width="25"/>
<path d="M887.5 12.5V137.5H562.5V12.5H887.5Z" fill="black" stroke="#444444" stroke-width="25"/>
<path d="M437.5 12.5V137.5H112.5V12.5H437.5Z" fill="black" stroke="#444444" stroke-width="25"/>
<path d="M1787.5 12.5V137.5H1462.5V12.5H1787.5Z" fill="black" stroke="#444444" stroke-width="25"/>
<rect x="757.5" y="187.5" width="386" height="525" stroke="#444444"/>
<path d="M1144 290.371L1108.74 670.693L950.263 713L792.219 670.753L757 290.371H1144Z" fill="#E44D26"/>
<path d="M950.5 680.662L1078.56 646.475L1108.69 321.473H950.5V680.662Z" fill="#F16529"/>
<path d="M881.963 414.779H950.5V368.126H950.333H829.015L830.174 380.642L842.082 509.203H950.5V462.551H886.39L881.963 414.779Z" fill="#EBEBEB"/>
<path d="M892.881 532.53H866.662H844.247L851.034 605.78L950.277 632.309L950.5 632.25V583.712L950.288 583.766L896.33 569.737L892.881 532.53Z" fill="#EBEBEB"/>
<path d="M793.007 187H817.627V210.423H840.15V187H864.772V257.932H840.151V234.18H817.629V257.932H793.008L793.007 187Z" fill="white"/>
<path d="M897.149 210.522H875.474V187H943.456V210.522H921.772V257.932H897.15L897.149 210.522Z" fill="white"/>
<path d="M954.246 187H979.919L995.711 211.923L1011.49 187H1037.17V257.932H1012.65V222.774L995.711 247.994H995.287L978.336 222.774V257.932H954.246V187Z" fill="white"/>
<path d="M1049.42 187H1074.05V234.486H1108.67V257.932H1049.42V187Z" fill="white"/>
<path d="M950.333 509.203H1009.99L1004.37 569.707L950.333 583.751V632.287L1049.65 605.78L1050.38 597.898L1061.77 475.078L1062.95 462.551H1049.89H950.333V509.203Z" fill="white"/>
<path d="M950.333 414.665V414.779H1067.2H1067.36L1068.33 404.292L1070.54 380.642L1071.7 368.126H950.333V397.101V414.665Z" fill="white"/>
</svg>
